<svg width="61" height="60" viewBox="0 0 61 60" fill="none" xmlns="http://www.w3.org/2000/svg">
<path fill-rule="evenodd" clip-rule="evenodd" d="M30.7083 0C14.1401 0 0.708252 13.4318 0.708252 30C0.708252 46.5682 14.1401 60 30.7083 60C47.2764 60 60.7083 46.5682 60.7083 30C60.7083 13.4318 47.2764 0 30.7083 0ZM21.7273 36.0191C21.213 36.5159 20.5241 36.7908 19.809 36.7846C19.0939 36.7784 18.4099 36.4915 17.9042 35.9859C17.3985 35.4802 17.1117 34.7962 17.1055 34.0811C17.0993 33.366 17.3742 32.6771 17.871 32.1627L28.7801 21.2536C29.2915 20.7424 29.9851 20.4551 30.7083 20.4551C31.4314 20.4551 32.125 20.7424 32.6364 21.2536L43.5455 32.1627C44.0423 32.6771 44.3172 33.366 44.311 34.0811C44.3048 34.7962 44.018 35.4802 43.5123 35.9859C43.0066 36.4915 42.3226 36.7784 41.6075 36.7846C40.8924 36.7908 40.2035 36.5159 39.6892 36.0191L30.7083 27.0382L21.7273 36.0191Z" fill="#1054A1"/>
</svg>
